<?xml version="1.0" encoding="utf-8"?>
<!-- Generator: Adobe Illustrator 19.0.0, SVG Export Plug-In . SVG Version: 6.00 Build 0)  -->
<svg version="1.1" id="Layer_1" xmlns="http://www.w3.org/2000/svg" xmlns:xlink="http://www.w3.org/1999/xlink" x="0px" y="0px"
	 viewBox="0 0 24 24" style="enable-background:new 0 0 24 24;" xml:space="preserve">
<style type="text/css">
	<!--photon color: green-50-->
	.st0{fill:#30e60b;}
</style>
<g id="XMLID_2_">
	<g id="XMLID_10_">
		<path id="XMLID_174_" class="st0" d="M12.9,2.8V1.7h0.8c0.5,0,0.9-0.4,0.9-0.9c0-0.5-0.4-0.9-0.9-0.9h-3.2C9.9,0,9.5,0.4,9.5,0.9
			s0.4,0.9,0.9,0.9h0.8v1.1c-5.5,0.4-9.8,5-9.8,10.6C1.4,19.2,6.1,24,12,24s10.6-4.8,10.6-10.6C22.6,7.8,18.3,3.2,12.9,2.8z
			 M12,22.3c-4.9,0-8.9-4-8.9-8.9s4-8.9,8.9-8.9c4.9,0,8.9,4,8.9,8.9S16.9,22.3,12,22.3z"/>
	</g>
	<g id="XMLID_3_">
		<path id="XMLID_58_" class="st0" d="M17.9,3.7c0.5,0.3,0.9,0.6,1.4,1c0.2,0.1,0.4,0.2,0.5,0.2c0.2,0,0.5-0.1,0.7-0.3
			c0.3-0.4,0.3-0.9-0.1-1.2c-0.5-0.4-1-0.8-1.6-1.1c-0.4-0.2-0.9-0.1-1.2,0.3C17.4,2.9,17.5,3.4,17.9,3.7z"/>
	</g>
	<g id="XMLID_4_">
		<path id="XMLID_38_" class="st0" d="M15.8,7.8c-0.4-0.3-0.9-0.2-1.2,0.2l-3.4,4.9c-0.3,0.4-0.2,0.9,0.2,1.2
			c0.1,0.1,0.3,0.1,0.5,0.1c0.3,0,0.5-0.1,0.7-0.4l3.4-4.9C16.3,8.6,16.2,8,15.8,7.8z"/>
	</g>
</g>
</svg>
