<?xml version="1.0" encoding="UTF-8"?>
<svg width="24px" height="21px" viewBox="0 0 24 21" version="1.1" xmlns="http://www.w3.org/2000/svg" xmlns:xlink="http://www.w3.org/1999/xlink">
    <!-- Generator: Sketch 41.2 (35397) - http://www.bohemiancoding.com/sketch -->
    <title>Combined Shape</title>
    <desc>Created with Sketch.</desc>
    <defs></defs>
    <g id="Page-1-Copy-3" stroke="none" stroke-width="1" fill="none" fill-rule="evenodd">
        <path d="M15.8066667,6.77008889 C15.7992,6.76346667 15.7952,6.76017778 15.7952,6.76017778 C15.8024889,6.76586667 15.8097778,6.772 15.8170667,6.77862222 C15.8243556,6.78524444 15.8316444,6.79235556 15.8389333,6.8 C15.8112,6.77333333 15.7952,6.76017778 15.7952,6.76017778 C15.8023111,6.768 15.8087111,6.77617778 15.8158222,6.78435556 C15.7980444,6.76728889 15.7877333,6.7584 15.7877333,6.7584 C15.7877333,6.7584 15.7980444,6.816 15.8161778,6.91768889 C15.5445333,6.47751111 15.1313778,6.27022222 15.1313778,6.27022222 C15.1313778,6.27022222 15.1651556,6.38044444 15.2177778,6.53902222 C15.4634667,6.73742222 15.6782222,6.95857778 15.8645333,7.19182222 C15.8652444,7.19573333 15.8659556,7.2 15.8666667,7.20391111 C15.8773333,7.26577778 15.8890667,7.33297778 15.9015111,7.4048 C15.8684444,7.36 15.8336,7.31555556 15.7984,7.27146667 C15.4094222,6.74062222 14.9194667,6.29546667 14.3505778,5.96586667 C14.3555556,5.96728889 14.3466667,5.9648 14.3512889,5.96622222 C13.6611556,5.56337778 12.8636444,5.33333333 12.0138667,5.33333333 C10.7537778,5.33333333 9.60817778,5.83928889 8.75733333,6.66453333 C8.73386667,6.68764444 8.89635556,6.85155556 8.94364444,6.86613333 C9.18435556,6.79324444 9.45351111,6.77368889 9.66151111,6.79822222 C9.76177778,6.71893333 9.74684444,6.7424 9.8528,6.67342222 L9.85386667,6.67448889 C10.4949333,6.25991111 11.2369778,6.03804444 12.0124444,6.03804444 C12.7260444,6.03804444 13.4112,6.22577778 14.0156444,6.57884444 C14.1752889,6.62577778 14.3761778,6.69511111 14.5536,6.78791111 C14.3690667,6.46648889 14.1802667,6.24355556 14.0483556,6.10915556 C14.5994667,6.52942222 14.8977778,6.90666667 15.0936889,7.25191111 C15.1096889,7.28 15.1249778,7.30773333 15.1395556,7.33546667 C15.1744,7.40124444 15.2060444,7.46595556 15.2352,7.5296 C15.0471111,7.33084444 14.7566222,7.12604444 14.5027556,7.03004444 C14.4821333,7.02222222 14.4618667,7.01511111 14.4419556,7.00871111 C14.3850667,6.99093333 14.3306667,6.97884444 14.2805333,6.97493333 C14.6844444,7.28462222 15.3447111,8.16995556 15.3536,9.50897778 L15.3536,9.53137778 C15.3536,9.60355556 15.3521778,9.6768 15.3482667,9.75182222 C15.2736,9.58968889 15.1562667,9.36533333 15.0442667,9.19786667 C15.0161778,9.15591111 14.9884444,9.11786667 14.9617778,9.0848 C14.9386667,9.05635556 14.9162667,9.03111111 14.8952889,9.01191111 C15.0147556,10.1393778 14.9596444,10.5777778 14.8856889,10.8981333 C14.8785778,10.9276444 14.8718222,10.9564444 14.8647111,10.9845333 C14.8497778,11.0428444 14.8348444,11.0990222 14.8209778,11.1566222 C14.816,11.1136 14.8085333,11.0737778 14.7996444,11.0364444 C14.7790222,10.9479111 14.7502222,10.8746667 14.7256889,10.8174222 C14.7175111,10.7989333 14.7096889,10.7811556 14.7032889,10.7662222 C14.7032889,10.7662222 14.6954667,10.9703111 14.6044444,11.2995556 C14.5596444,11.4609778 14.4952889,11.6519111 14.4014222,11.8638222 C14.2378667,12.2339556 14.0704,12.4099556 13.9559111,12.4664889 C13.9189333,12.4846222 13.8876444,12.4903111 13.8638222,12.4860444 C13.8371556,12.4842667 13.8225778,12.4725333 13.8229333,12.4714667 C13.8257778,12.4448 13.8286222,12.4181333 13.8296889,12.3925333 C13.8311111,12.3569778 13.8293333,12.3242667 13.8200889,12.2997333 C13.8200889,12.2997333 13.7287111,12.3320889 13.6700444,12.4174222 C13.6462222,12.4515556 13.6156444,12.4853333 13.5754667,12.5166222 C13.5683556,12.5223111 13.6405333,12.4216889 13.6352,12.4263111 C13.5996444,12.4561778 13.5616,12.4906667 13.5235556,12.5315556 C13.4826667,12.5752889 13.4432,12.6200889 13.4058667,12.6609778 C13.3152,12.7598222 13.2384,12.8337778 13.1918222,12.8003556 C13.2220444,12.7911111 13.2490667,12.7665778 13.2700444,12.7352889 C13.2924444,12.7025778 13.3084444,12.6624 13.3152,12.6222222 C13.2600889,12.6620444 13.1207111,12.7694222 12.8078222,12.8174222 C12.7498667,12.8263111 12.6069333,12.8519111 12.4007111,12.8430222 C12.1507556,12.832 11.808,12.7701333 11.4115556,12.5656889 C11.4944,12.5557333 11.6099556,12.5301333 11.7141333,12.5553778 C11.7422222,12.5621333 11.7696,12.5724444 11.7952,12.5884444 C11.7838222,12.5756444 11.7706667,12.5646222 11.7564444,12.5546667 C11.6206222,12.4576 11.3642667,12.4743111 11.1754667,12.4128 C10.9937778,12.3534222 10.7566222,12.0906667 10.6200889,11.9576889 C10.6712889,11.9704889 10.7224889,11.9808 10.7736889,11.9896889 C10.8096,11.9957333 10.8451556,12.0010667 10.8807111,12.0053333 C10.9361778,12.0120889 10.9916444,12.0170667 11.0467556,12.0195556 C11.4616889,12.0376889 11.856,11.9356444 12.1112889,11.7557333 C12.4568889,11.5118222 12.6616889,11.3336889 12.8455111,11.3756444 C12.8632889,11.3799111 12.8803556,11.3813333 12.8967111,11.3813333 C12.9041778,11.3813333 12.9112889,11.3809778 12.9184,11.3802667 C13.0193778,11.3688889 13.0855111,11.2817778 13.0673778,11.1790222 C13.0606222,11.1402667 13.0421333,11.0993778 13.0083556,11.0592 C12.9105778,10.9432889 12.7168,10.8 12.4529778,10.7608889 C12.3324444,10.7431111 12.1976889,10.7470222 12.0504889,10.7850667 C11.7813333,10.8544 11.5416889,11.0389333 11.2263111,11.0403556 C11.1203556,11.0410667 11.0058667,11.0208 10.8785778,10.9688889 C10.8476444,10.9564444 10.8163556,10.9418667 10.784,10.9255111 C10.7516444,10.9088 10.8896,10.9450667 10.8554667,10.9244444 C10.7584,10.8874667 10.5816889,10.8039111 10.5379556,10.7722667 C10.5308444,10.7669333 10.6112,10.7872 10.6026667,10.7818667 C10.1230222,10.4892444 10.1543111,10.2549333 10.1543111,10.1102222 C10.1543111,10.0515556 10.1717333,9.98293333 10.2055111,9.91964444 C10.2385778,9.85706667 10.2872889,9.80017778 10.3509333,9.76391111 C10.3911111,9.77848889 10.4220444,9.79235556 10.4412444,9.8016 C10.4551111,9.80835556 10.4629333,9.81262222 10.4629333,9.81262222 C10.4629333,9.81262222 10.4583111,9.8048 10.4512,9.79413333 C10.4401778,9.77742222 10.4231111,9.75217778 10.4106667,9.73724444 C10.4156444,9.73546667 10.4202667,9.73404444 10.4252444,9.73262222 C10.4586667,9.74435556 10.5169778,9.7664 10.5724444,9.78915556 C10.6104889,9.8048 10.6471111,9.8208 10.6730667,9.83431111 C10.7605333,9.87946667 10.7896889,9.92568889 10.7896889,9.92568889 C10.7896889,9.92568889 10.8103111,9.91253333 10.7889778,9.86631111 C10.7850667,9.85813333 10.7768889,9.84284444 10.7623111,9.824 C10.7431111,9.79946667 10.7121778,9.76817778 10.6627556,9.73724444 C10.6645333,9.73724444 10.6659556,9.73688889 10.6670222,9.73688889 C10.7125333,9.75537778 10.7605333,9.77884444 10.8135111,9.80977778 C10.816,9.79733333 10.8192,9.78488889 10.8220444,9.77208889 C10.8224,9.77031111 10.8231111,9.76888889 10.8234667,9.76711111 C10.8241778,9.76426667 10.8248889,9.76142222 10.8256,9.75857778 C10.8280889,9.74791111 10.8305778,9.73688889 10.8330667,9.72586667 C10.8373333,9.70702222 10.8408889,9.68711111 10.8437333,9.66577778 C10.8494222,9.62062222 10.8508444,9.56906667 10.8408889,9.50435556 C10.8248889,9.40302222 10.8270222,9.37706667 10.8024889,9.34008889 C10.7815111,9.3088 10.8081778,9.29493333 10.8408889,9.32302222 C10.8330667,9.29813333 10.8220444,9.27324444 10.8088889,9.248 C10.8088889,9.24764444 10.8092444,9.24764444 10.8092444,9.24693333 C10.8120889,9.23306667 10.8241778,9.21564444 10.8426667,9.19608889 C10.8472889,9.19075556 10.8529778,9.18542222 10.8586667,9.17973333 C10.864,9.1744 10.8696889,9.16942222 10.8760889,9.16373333 C11.0609778,9.00017778 11.5669333,8.72497778 11.6117333,8.69084444 C11.6864,8.63395556 11.7624889,8.54577778 11.8101333,8.44444444 C11.8250667,8.41671111 11.8378667,8.38328889 11.8474667,8.34417778 C11.8599111,8.29262222 11.8666667,8.23075556 11.8627556,8.15537778 C11.8599111,8.09386667 11.8353778,8.04764444 11.6149333,8.02417778 C11.4965333,8.01173333 11.3212444,8.00568889 11.0620444,8.00746667 L11.0336,8.00746667 C10.8231111,8.00924444 10.6862222,7.88302222 10.6037333,7.76284444 C10.5866667,7.73653333 10.5720889,7.71164444 10.5585778,7.68924444 C10.5404444,7.65582222 10.5283556,7.62595556 10.5187556,7.60213333 C10.5482667,7.49155556 10.5877333,7.3856 10.6364444,7.28497778 C10.7399111,7.072 10.8874667,6.88177778 11.0823111,6.71751111 C11.0997333,6.70222222 11.0136889,6.72746667 11.0300444,6.71182222 C11.0496,6.69297778 11.1712,6.63288889 11.1939556,6.61973333 C11.2078222,6.61155556 11.1793778,6.59768889 11.1313778,6.58773333 C11.1285333,6.58737778 11.1256889,6.58666667 11.1224889,6.58631111 C11.0684444,6.57635556 10.9927111,6.57244444 10.9233778,6.58737778 C10.7843556,6.61688889 10.7573333,6.63395556 10.6855111,6.672 C10.7146667,6.64106667 10.8088889,6.592 10.7857778,6.59697778 C10.6350222,6.63182222 10.4572444,6.73422222 10.3057778,6.8448 C10.3043556,6.83057778 10.3057778,6.8192 10.3086222,6.7968 C10.2371556,6.83484444 10.0647111,6.97208889 10.0206222,7.07662222 C10.0206222,7.05386667 10.0206222,7.04248889 10.0177778,7.01724444 C9.97297778,7.05991111 9.9296,7.10968889 9.88977778,7.1648 C9.88622222,7.16977778 9.88231111,7.1744 9.87875556,7.17937778 C9.8784,7.18044444 9.87768889,7.18115556 9.87697778,7.18186667 C9.7568,7.15093333 9.6416,7.13066667 9.53102222,7.11928889 C9.264,7.0912 9.02435556,7.11537778 8.81137778,7.1744 C8.78257778,7.18257778 8.75413333,7.19075556 8.7264,7.2 C8.65031111,7.14275556 8.528,7.05528889 8.33493333,6.74773333 C8.3232,6.72924444 8.32213333,6.79004444 8.31146667,6.77048889 C8.25528889,6.66595556 8.20515556,6.50666667 8.18062222,6.3616 C8.17208889,6.31111111 8.1664,6.2624 8.16497778,6.21831111 C8.16497778,6.21831111 8.10666667,6.25351111 8.04373333,6.36053333 C8.01991111,6.40106667 7.99537778,6.45191111 7.97333333,6.5152 C7.96871111,6.52835556 7.96408889,6.54186667 7.95982222,6.55608889 C7.94524444,6.60266667 7.93528889,6.6304 7.92497778,6.656 C7.92177778,6.66382222 7.93102222,6.57137778 7.92746667,6.57848889 C7.92177778,6.59093333 7.91182222,6.60586667 7.90115556,6.62293333 C7.88657778,6.64604444 7.87022222,6.67342222 7.85991111,6.70257778 C7.85742222,6.70933333 7.85528889,6.71608889 7.85351111,6.7232 C7.84284444,6.76764444 7.82542222,6.79466667 7.81831111,6.85013333 C7.81795556,6.85155556 7.8176,6.85262222 7.81688889,6.85368889 C7.81653333,6.84835556 7.81617778,6.83733333 7.81546667,6.82666667 C7.81475556,6.8096 7.81333333,6.79288889 7.81084444,6.79928889 C7.77528889,6.89671111 7.74186667,7.00871111 7.71484444,7.13493333 C7.67573333,7.3344 7.63591111,7.60711111 7.65973333,7.95306667 C7.65937778,7.96551111 7.66044444,7.97795556 7.66115556,7.99004444 C7.66222222,8.00497778 7.66328889,8.01955556 7.66293333,8.03342222 C7.54168889,8.20551111 7.46275556,8.35342222 7.43217778,8.42631111 C7.40124444,8.48817778 7.37031111,8.55751111 7.33973333,8.63431111 C7.22275556,8.92515556 7.10791111,9.32764444 7.0112,9.88906667 C7.0112,9.88906667 7.09333333,9.62168889 7.25724444,9.31911111 C7.13635556,9.70026667 7.04177778,10.2933333 7.09724444,11.1829333 C7.09866667,11.1633778 7.1104,11.0581333 7.13671111,10.9013333 C7.15022222,10.8213333 7.16728889,10.7281778 7.18933333,10.6257778 C7.1904,10.6488889 7.19182222,10.672 7.1936,10.6954667 C7.19893333,10.7786667 7.20675556,10.8643556 7.21706667,10.9521778 C7.22311111,11.0040889 7.23022222,11.0567111 7.23804444,11.1104 C7.31164444,11.5971556 7.472,12.1479111 7.80337778,12.7328 C8.14364444,13.3340444 9.04035556,14.7306667 11.2906667,15.2533333 C11.2270222,15.2344889 11.1697778,15.2106667 11.1196444,15.1857778 C10.9749333,15.1139556 10.8903111,15.0328889 10.8903111,15.0328889 C10.8903111,15.0328889 10.9617778,15.0563556 11.0780444,15.0894222 C11.3176889,15.1573333 11.7475556,15.2643556 12.1379556,15.2853333 C12.2083556,15.2888889 12.2776889,15.2903111 12.3441778,15.2874667 C12.1521778,15.2533333 12.1137778,15.1576889 12.1137778,15.1576889 C12.1137778,15.1576889 13.8606222,15.2593778 14.768,14.5198222 C14.7857778,14.5052444 14.8035556,14.4903111 14.8209778,14.4750222 C14.8224,14.4743111 14.8234667,14.4739556 14.8248889,14.4732444 C14.9607111,14.3569778 15.0599111,14.2296889 15.1128889,14.1066667 C15.0705778,14.1276444 15.0286222,14.1472 14.9877333,14.1656889 C14.8533333,14.3114667 14.6894222,14.4305778 14.5084444,14.528 C14.3431111,14.5763556 14.1752889,14.6033778 14.0440889,14.6161778 C13.9843556,14.6218667 13.9320889,14.6247111 13.8912,14.6250667 C13.9889778,14.5322667 14.1180444,14.4643556 14.2709333,14.3982222 C14.4974222,14.3000889 14.7772444,14.2062222 15.0872889,14.0430222 C15.088,14.0426667 15.0887111,14.0423111 15.0894222,14.0419556 C15.1079111,14.0323556 15.1264,14.0220444 15.1448889,14.0120889 C15.4126222,13.8652444 15.7013333,13.6647111 15.9978667,13.3635556 C16.2801778,13.0769778 16.4184889,12.8295111 16.4952889,12.6037333 C16.5166222,12.5404444 16.5333333,12.4789333 16.5468444,12.4188444 C16.5696,12.3182222 16.5841778,12.2211556 16.5987556,12.1258667 L16.5987556,12.1244444 C16.5987556,12.1251556 16.5984,12.1255111 16.5984,12.1262222 C16.5959111,12.1400889 16.5930667,12.1539556 16.5902222,12.1674667 C16.5052444,12.5393778 16.1944889,12.7900444 15.8378667,13.008 C15.7717333,13.0481778 15.7038222,13.0872889 15.6359111,13.1260444 C15.6760889,13.0474667 15.7187556,12.9745778 15.7624889,12.9045333 C15.7639111,12.9027556 15.7649778,12.9009778 15.7660444,12.8992 C15.7653333,12.9009778 15.7646222,12.9024 15.7639111,12.9041778 C15.7592889,12.9134222 15.7550222,12.9223111 15.7511111,12.9304889 C15.7571556,12.9205333 15.7635556,12.9105778 15.7699556,12.9006222 C15.8392889,12.7904 15.9153778,12.6823111 15.9936,12.5767111 C16.1813333,12.3338667 16.3655111,12.1308444 16.4874667,11.9075556 C16.5056,11.8744889 16.5248,11.8371556 16.5447111,11.7962667 C16.5521778,11.7809778 16.56,11.7653333 16.5674667,11.7486222 C16.7004444,11.4816 16.8380444,11.1171556 16.9269333,10.7093333 C16.9667556,10.5265778 16.9966222,10.3349333 17.0122667,10.1393778 C17.0268444,9.95271111 17.0282667,9.76248889 17.0122667,9.57297778 C17.0069333,9.51004444 16.9998222,9.44711111 16.9905778,9.38453333 C16.9685333,9.22524444 16.9333333,9.06808889 16.8810667,8.91591111 C16.8835556,8.92515556 16.8856889,8.93475556 16.8878222,8.944 C16.8842667,8.93297778 16.8821333,8.92693333 16.8821333,8.92693333 C16.8821333,8.92693333 16.8405333,9.05671111 16.7768889,9.26933333 C16.7726222,9.70311111 16.7253333,10.1038222 16.6556444,10.4064 C16.7712,10.2976 16.8558222,10.1685333 16.9137778,10.0252444 C16.8881778,10.1194667 16.8529778,10.2090667 16.8071111,10.2922667 C16.7505778,10.3882667 16.6869333,10.4661333 16.6254222,10.528 C16.5585778,10.5944889 16.4945778,10.6424889 16.4444444,10.6752 C16.4597333,10.6328889 16.4746667,10.5859556 16.4888889,10.5354667 C16.4892444,10.5347556 16.4892444,10.5344 16.4896,10.5336889 C16.4931556,10.5208889 16.4967111,10.5073778 16.5002667,10.4935111 C16.5372444,10.3736889 16.5703111,10.2499556 16.5987556,10.1240889 C16.6396444,9.94168889 16.6709333,9.75395556 16.6904889,9.56373333 C16.7288889,9.1936 16.7232,8.81315556 16.6592,8.44231111 C16.6275556,8.25848889 16.5816889,8.07715556 16.5198222,7.90044444 C16.4373333,7.66542222 16.3367111,7.46702222 16.2368,7.30453333 C16.2293333,7.29173333 16.2218667,7.27893333 16.2144,7.26613333 C16.1813333,7.21066667 16.1475556,7.15804444 16.1137778,7.10897778 C16.0028444,6.94862222 15.8894222,6.82666667 15.7952,6.76017778 C15.8024889,6.76586667 15.8097778,6.772 15.8170667,6.77862222 Z M21.7999878,0.433333333 L19.4,0.433308919 L17.8,0.433333333 L6.1,0.433333333 L4.6,0.433333333 L2.1,0.433333333 C1,0.333333333 0,1.33333333 0,2.53333333 L0,18.2333333 C0,19.4333333 1,20.3333333 2.1,20.3333333 L21.8,20.3333333 C23,20.3333333 23.9,19.3333333 23.9,18.2333333 L23.9,2.53333333 C23.9,0.433333333 21.7999878,0.433333333 21.7999878,0.433333333 Z M2.1,18.8333333 C1.8,18.8333333 1.5,18.5333333 1.5,18.2333333 L1.5,2.53333333 C1.5,2.13333333 1.8,1.93333333 2.1,1.93333333 L4.6,1.93333333 L6.2,1.93333333 L17.9,1.93333333 L19.5,1.93333333 L22,1.93333333 C22.3,1.93333333 22.6,2.23333333 22.6,2.53333333 L22.6,18.2333333 C22.6,18.5333333 22.3,18.8333333 22,18.8333333 L2.1,18.8333333 Z M16.5952,12.1340444 C16.6033778,12.0704 16.6040889,12.0106667 16.5969778,11.9559111 C16.4448,12.2165333 16.2112,12.4533333 15.9921778,12.7662222 C16.2595556,12.5941333 16.4885333,12.3968 16.5952,12.1340444 Z" id="Combined-Shape" fill="#00c8d7">
        <!--photon color: teal-60-->
        </path>
    </g>
</svg>
