<?xml version="1.0" encoding="utf-8"?>
<!-- Generator: Adobe Illustrator 19.0.0, SVG Export Plug-In . SVG Version: 6.00 Build 0)  -->
<svg version="1.1" id="Layer_1" xmlns="http://www.w3.org/2000/svg" xmlns:xlink="http://www.w3.org/1999/xlink"
	 viewBox="0 0 24 24" xml:space="preserve">
<style type="text/css">
	<!--photon color: purple-50-->
	.st0{fill:none;}
	.st1{fill:#9400ff;}
</style>
<g id="XMLID_1_">
	<path id="XMLID_5_" class="st0" d="M22.5,20.8V5.1c0-0.4-0.3-0.6-0.6-0.6h-2.5V6c0,0.4-0.3,0.8-0.8,0.8c-0.4,0-0.8-0.3-0.8-0.8V4.5
		H6.1V6c0,0.4-0.3,0.8-0.8,0.8C4.9,6.8,4.6,6.4,4.6,6V4.5H2.1c-0.3,0-0.6,0.3-0.6,0.6v15.7c0,0.3,0.3,0.6,0.6,0.6h19.7
		C22.2,21.4,22.5,21.1,22.5,20.8z M17.9,13.9c-1.2,1.3-2.6,2.6-3.8,3.8c-0.3,0.3-0.8,0.3-1.1,0c-0.3-0.3-0.3-0.8,0-1.1l2.6-2.6h-9
		c-0.4,0-0.8-0.3-0.8-0.8c0-0.4,0.3-0.8,0.8-0.8h9L13,10c-0.3-0.3-0.3-0.8,0-1.1c0.2-0.2,0.4-0.2,0.6-0.2c0.2,0,0.4,0.1,0.5,0.2
		c1.3,1.3,2.6,2.6,3.8,3.8c0.2,0.1,0.3,0.3,0.3,0.6C18.2,13.6,18.1,13.8,17.9,13.9z"/>
	<path id="XMLID_14_" class="st1" d="M21.9,2.9h-2.5V0.8c0-0.4-0.3-0.8-0.8-0.8c-0.4,0-0.8,0.4-0.8,0.8v2.2H6.1V0.8
		C6.1,0.3,5.8,0,5.4,0C4.9,0,4.6,0.4,4.6,0.8v2.2H2.1C1,2.9,0,3.9,0,5.1v15.7c0,1.2,1,2.1,2.1,2.1h19.7c1.2,0,2.1-1,2.1-2.1V5.1
		C24,3.9,23,2.9,21.9,2.9z M2.1,21.4c-0.3,0-0.6-0.3-0.6-0.6V5.1c0-0.4,0.3-0.6,0.6-0.6h2.5V6c0,0.4,0.3,0.8,0.8,0.8
		c0.4,0,0.8-0.3,0.8-0.8V4.5h11.7V6c0,0.4,0.3,0.8,0.8,0.8c0.4,0,0.8-0.3,0.8-0.8V4.5h2.5c0.3,0,0.6,0.3,0.6,0.6v15.7
		c0,0.3-0.3,0.6-0.6,0.6H2.1z"/>
	<path id="XMLID_15_" class="st1" d="M14.1,9c-0.2-0.2-0.3-0.2-0.5-0.2c-0.2,0-0.4,0.1-0.6,0.2c-0.3,0.3-0.3,0.8,0,1.1l2.6,2.6h-9
		c-0.4,0-0.8,0.3-0.8,0.8c0,0.4,0.3,0.8,0.8,0.8h9L13,16.7c-0.3,0.3-0.3,0.8,0,1.1c0.3,0.3,0.8,0.3,1.1,0c1.3-1.3,2.6-2.6,3.8-3.8
		c0.2-0.1,0.3-0.3,0.3-0.6c0-0.2-0.1-0.4-0.3-0.6C16.6,11.5,15.4,10.2,14.1,9z"/>
</g>
</svg>
