<?xml version="1.0" encoding="utf-8"?>
<!-- Generator: Adobe Illustrator 19.0.0, SVG Export Plug-In . SVG Version: 6.00 Build 0)  -->
<svg version="1.1" id="Layer_1" xmlns="http://www.w3.org/2000/svg" xmlns:xlink="http://www.w3.org/1999/xlink" x="0px" y="0px"
	 viewBox="0 0 24 24" style="enable-background:new 0 0 24 24;" xml:space="preserve">
<style type="text/css">
	.st0{fill:none;}
	.st1{fill:#d7b600;}
</style>
<g id="XMLID_1_">
	<rect id="XMLID_2_" x="14.4" y="15.6" class="st0" width="3.5" height="3.4"/>
	<path id="XMLID_5_" class="st0" d="M22.5,21.3V5.7c0-0.4-0.3-0.6-0.6-0.6h-2.5v1.5c0,0.4-0.3,0.8-0.8,0.8c-0.4,0-0.8-0.3-0.8-0.8V5
		H6.1v1.5c0,0.4-0.3,0.8-0.8,0.8C4.9,7.3,4.6,7,4.6,6.5V5H2.1C1.8,5,1.5,5.3,1.5,5.7v15.7c0,0.3,0.3,0.6,0.6,0.6h19.7
		C22.2,21.9,22.5,21.7,22.5,21.3z M19.4,19.4c0,0.7-0.5,1.2-1.2,1.2h-4.1c-0.7,0-1.2-0.5-1.2-1.2v-4.1c0-0.7,0.5-1.2,1.2-1.2h4.1
		c0.7,0,1.2,0.5,1.2,1.2V19.4z"/>
	<path id="XMLID_18_" class="st1" d="M21.9,3.5h-2.5V1.3c0-0.4-0.3-0.8-0.8-0.8c-0.4,0-0.8,0.4-0.8,0.8v2.2H6.1V1.3
		c0-0.4-0.3-0.8-0.8-0.8c-0.4,0-0.8,0.4-0.8,0.8v2.2H2.1C1,3.5,0,4.5,0,5.7v15.7c0,1.2,1,2.1,2.1,2.1h19.7c1.2,0,2.1-1,2.1-2.1V5.7
		C24,4.5,23,3.5,21.9,3.5z M2.1,21.9c-0.3,0-0.6-0.3-0.6-0.6V5.7C1.5,5.3,1.8,5,2.1,5h2.5v1.5c0,0.4,0.3,0.8,0.8,0.8
		c0.4,0,0.8-0.3,0.8-0.8V5h11.7v1.5c0,0.4,0.3,0.8,0.8,0.8c0.4,0,0.8-0.3,0.8-0.8V5h2.5c0.3,0,0.6,0.3,0.6,0.6v15.7
		c0,0.3-0.3,0.6-0.6,0.6H2.1z"/>
	<path id="XMLID_21_" class="st1" d="M18.2,14h-4.1c-0.7,0-1.2,0.5-1.2,1.2v4.1c0,0.7,0.5,1.2,1.2,1.2h4.1c0.7,0,1.2-0.5,1.2-1.2
		v-4.1C19.4,14.6,18.9,14,18.2,14z M17.9,15.6V19h-3.5v-3.4H17.9z"/>
</g>
</svg>
