<?xml version="1.0" encoding="utf-8"?>
<!-- Generator: Adobe Illustrator 19.0.0, SVG Export Plug-In . SVG Version: 6.00 Build 0)  -->
<svg version="1.1" id="Layer_1" xmlns="http://www.w3.org/2000/svg" xmlns:xlink="http://www.w3.org/1999/xlink" x="0px" y="0px"
	 viewBox="0 0 24 24" style="enable-background:new 0 0 24 24;" xml:space="preserve">
<style type="text/css">
	.st0{fill:#5FBCF0;}
</style>
<g id="XMLID_11_">
	<g id="XMLID_13_">
		<path id="XMLID_24_" class="st0" d="M10.5,4.5c-0.4,0-0.7,0.3-0.7,0.7V12c0,0.4,0.3,0.7,0.7,0.7h3.7c0.4,0,0.7-0.3,0.7-0.7
			s-0.3-0.7-0.7-0.7h-3v-6C11.2,4.8,10.9,4.5,10.5,4.5z"/>
	</g>
	<g id="XMLID_12_">
		<path id="XMLID_23_" class="st0" d="M22.7,10L21,11.7C20.8,6.1,16.2,1.5,10.5,1.5C4.7,1.5,0,6.2,0,12s4.7,10.5,10.5,10.5
			c0.4,0,0.7-0.3,0.7-0.7S10.9,21,10.5,21c-4.9,0-9-4-9-9s4-9,9-9c4.9,0,8.8,3.9,9,8.7L17.8,10c-0.3-0.3-0.8-0.3-1,0
			c-0.3,0.3-0.3,0.8,0,1l3,3c0.1,0.1,0.3,0.2,0.5,0.2s0.4-0.1,0.5-0.2l3-3c0.3-0.3,0.3-0.8,0-1C23.4,9.7,23,9.7,22.7,10z"/>
	</g>
</g>
</svg>
