<svg xmlns="http://www.w3.org/2000/svg" xmlns:xlink="http://www.w3.org/1999/xlink" version="1.1" x="0px" y="0px" viewBox="0 0 100 125" enable-background="new 0 0 100 100" xml:space="preserve" fill="#ffffff"><path d="M54.344,93.525c-0.81,0-1.558-0.494-1.862-1.273c-0.354-0.908-0.002-1.939,0.833-2.441  C61.955,84.619,70.363,73,68.881,63.282c-1.046-6.857-7.031-12.025-17.362-15.034v12.384c0,0.729-0.396,1.399-1.034,1.751  c-0.638,0.353-1.417,0.33-2.033-0.059L7.068,36.246c-0.581-0.366-0.934-1.005-0.934-1.692s0.353-1.326,0.934-1.692L48.453,6.783  c0.616-0.389,1.395-0.412,2.033-0.059c0.638,0.352,1.034,1.022,1.034,1.751v13.942C68.406,23.5,84.432,32.776,90.963,45.425  c3.638,7.047,3.904,14.733,0.692,22.195C85.25,82.5,67,93.083,54.344,93.525z M49.991,43.703  c17.123,4.16,21.874,12.615,22.844,18.976c1.277,8.373-3.275,17.572-9.686,24.268c11.907-4.389,21.044-12.021,24.827-20.895  c2.703-6.341,2.506-12.839-0.567-18.792c-6.143-11.897-21.745-20.505-37.942-20.933c-1.083-0.029-1.947-0.916-1.947-2V12.099  L11.886,34.554l35.633,22.455V45.646c0-0.614,0.282-1.193,0.764-1.572C48.958,43.458,49.835,43.665,49.991,43.703z"/><text x="0" y="115" fill="#000000" font-size="5px" font-weight="bold" font-family="'Helvetica Neue', Helvetica, Arial-Unicode, Arial, Sans-serif">Created by H Alberto Gongora</text><text x="0" y="120" fill="#000000" font-size="5px" font-weight="bold" font-family="'Helvetica Neue', Helvetica, Arial-Unicode, Arial, Sans-serif">from the Noun Project</text></svg>
