<?xml version="1.0" encoding="UTF-8" standalone="no"?>
<!DOCTYPE svg PUBLIC "-//W3C//DTD SVG 1.1//EN" "http://www.w3.org/Graphics/SVG/1.1/DTD/svg11.dtd">
<svg width="100%" height="100%" viewBox="0 0 24 24" version="1.1" xmlns="http://www.w3.org/2000/svg" xmlns:xlink="http://www.w3.org/1999/xlink" xml:space="preserve">
    <style type="text/css">
        <!--photon color: orange-50-->
        .st1{fill:#ff9400;}
    </style>
    <path class="st1" d="M22.1,5.114C22.236,5.115 22.263,5.12 22.34,5.13C23.225,5.242 23.971,6.041 23.988,6.978C24.014,11.053 23.989,15.128 23.989,19.202C23.982,20.183 23.144,21.071 22.125,21.09C15.383,21.133 8.641,21.09 1.899,21.09C0.915,21.084 0.031,20.246 0.012,19.226C-0.014,15.152 0.011,11.077 0.011,7.002C0.018,6.012 0.868,5.121 1.899,5.114L8.158,5.114C8.158,4.222 8.097,3.193 8.917,2.939C8.991,2.916 9.069,2.905 9.147,2.903C11.08,2.887 13.014,2.887 14.948,2.903C15.587,2.919 15.934,3.73 15.936,4.29L15.936,5.114L22.1,5.114ZM13.964,16.974L9.981,16.974C9.854,16.96 9.843,16.902 9.835,16.828L9.835,14.916C9.779,14.91 9.724,14.903 9.668,14.897C6.616,14.542 3.581,13.488 1.307,11.495L1.306,11.494C1.306,14.069 1.257,16.643 1.306,19.217C1.316,19.522 1.581,19.786 1.884,19.795C8.627,19.924 15.373,19.924 22.115,19.795C22.422,19.785 22.691,19.511 22.693,19.202L22.693,11.38C22.686,11.387 22.678,11.394 22.671,11.4C20.389,13.456 17.313,14.54 14.195,14.901L14.11,14.911L14.11,16.828C14.096,16.955 14.038,16.966 13.964,16.974ZM12.815,13.341L11.13,13.341L11.13,15.679L12.815,15.679L12.815,13.341ZM14.028,12.061C14.075,12.091 14.104,12.134 14.11,12.192L14.11,13.608C17.347,13.232 20.651,12.056 22.685,9.535L22.693,9.524C22.693,8.679 22.709,7.833 22.693,6.987C22.684,6.684 22.419,6.419 22.116,6.41C15.373,6.281 8.627,6.281 1.884,6.41C1.577,6.419 1.308,6.694 1.306,7.003L1.306,9.683C3.318,12.061 6.57,13.23 9.775,13.606L9.835,13.613L9.835,12.192C9.844,12.114 9.861,12.06 9.981,12.046L13.964,12.046C13.964,12.046 13.994,12.049 14.028,12.061ZM14.636,4.198L9.458,4.198C9.455,4.229 9.453,4.26 9.453,4.291L9.453,5.115L14.641,5.115C14.641,4.809 14.665,4.502 14.636,4.199L14.636,4.198Z"/>
</svg>
