<?xml version="1.0" encoding="utf-8"?>
<!-- Generator: Adobe Illustrator 19.0.0, SVG Export Plug-In . SVG Version: 6.00 Build 0)  -->
<svg version="1.1" id="Layer_1" xmlns="http://www.w3.org/2000/svg" xmlns:xlink="http://www.w3.org/1999/xlink" x="0px" y="0px"
	 viewBox="0 0 24 24" style="enable-background:new 0 0 24 24;" xml:space="preserve">
<style type="text/css">
	.st0{fill:none;}
	.st1{fill:#FA9657;}
</style>
<g id="XMLID_6_">
	<g id="XMLID_1_">
		<path id="XMLID_2_" class="st0" d="M5.6,5.8c-3.6,0-4.4,1-4.4,2.6c0,2.5,1.6,4.3,3.8,4.3c2.3,0,4.9-1.8,4.9-4.3
			C10,6.8,9.3,5.8,5.6,5.8z"/>
		<path id="XMLID_3_" class="st0" d="M18.4,5.8c-3.6,0-4.4,1-4.4,2.6c0,2.5,2.6,4.3,4.9,4.3c2.3,0,3.8-1.8,3.8-4.3
			C22.7,6.8,22,5.8,18.4,5.8z"/>
		<path id="XMLID_24_" class="st1" d="M22.1,5.1c-1.2-0.6-2.7-0.6-3.7-0.6c-2.3,0-4.9,0.3-5.5,2.8c-0.5-0.3-1.2-0.3-1.7,0
			c-0.6-2.4-3.2-2.7-5.5-2.7C4.1,4.5,0,4.5,0,8.4c0,3.2,2.2,5.6,5.1,5.6c3.3,0,6.2-2.6,6.2-5.6l0,0c0.4-0.4,1.1-0.4,1.4,0.1
			c0,3,2.9,5.5,6.2,5.5c3,0,5.1-2.3,5.1-5.6C24,6.8,23.4,5.7,22.1,5.1z M22.7,8.4c0,2.5-1.6,4.3-3.8,4.3c-2.3,0-4.9-1.8-4.9-4.3
			c0-1.6,0.7-2.6,4.4-2.6C22,5.8,22.7,6.8,22.7,8.4z M10,8.4c0,2.5-2.6,4.3-4.9,4.3c-2.3,0-3.8-1.8-3.8-4.3c0-1.6,0.7-2.6,4.4-2.6
			S10,6.8,10,8.4z"/>
	</g>
	<path id="XMLID_8_" class="st1" d="M8.7,8.5c-0.2-0.2-0.7-0.2-0.9,0l-2.1,2.1c-0.1,0.1-0.2,0.3-0.2,0.4s0.1,0.3,0.2,0.4
		c0.1,0.1,0.3,0.2,0.5,0.2c0.2,0,0.3-0.1,0.5-0.2l2.1-2.1C9,9.2,9,8.8,8.7,8.5z"/>
	<path id="XMLID_10_" class="st1" d="M5.1,6.8c-0.2-0.2-0.7-0.2-0.9,0L2,8.9C1.9,9,1.8,9.1,1.8,9.3c0,0.2,0.1,0.3,0.2,0.4
		c0.1,0.1,0.3,0.2,0.5,0.2c0.2,0,0.3-0.1,0.5-0.2l2.1-2.1c0.1-0.1,0.2-0.3,0.2-0.4C5.3,7,5.2,6.9,5.1,6.8z"/>
	<path id="XMLID_7_" class="st1" d="M7.5,7.1C7.4,6.9,7.3,6.9,7.1,6.9c0,0,0,0,0,0c-0.2,0-0.3,0.1-0.5,0.2l-3.1,3
		c-0.1,0.1-0.2,0.3-0.2,0.4c0,0.2,0.1,0.3,0.2,0.4c0.1,0.1,0.3,0.2,0.5,0.2c0.2,0,0.3-0.1,0.5-0.2l3.1-3c0.1-0.1,0.2-0.3,0.2-0.4
		C7.7,7.3,7.7,7.2,7.5,7.1z"/>
	<path id="XMLID_12_" class="st1" d="M21.9,8.5c-0.1-0.1-0.3-0.2-0.5-0.2h0c-0.2,0-0.3,0.1-0.5,0.2l-2.1,2.1
		c-0.1,0.1-0.2,0.3-0.2,0.4s0.1,0.3,0.2,0.4c0.1,0.1,0.3,0.2,0.5,0.2s0.3-0.1,0.5-0.2l2.1-2.1C22,9.3,22.1,9.1,22.1,9
		C22.1,8.8,22,8.6,21.9,8.5z"/>
	<path id="XMLID_9_" class="st1" d="M18.3,6.8c-0.1-0.1-0.3-0.2-0.5-0.2h0c-0.2,0-0.3,0.1-0.5,0.2l-2.1,2.1C15.1,9,15,9.1,15,9.3
		c0,0.2,0.1,0.3,0.2,0.4c0.1,0.1,0.3,0.2,0.5,0.2c0.2,0,0.3-0.1,0.5-0.2l2.1-2.1c0.1-0.1,0.2-0.3,0.2-0.4C18.4,7,18.4,6.9,18.3,6.8z
		"/>
	<path id="XMLID_11_" class="st1" d="M20.7,7.1c-0.1-0.1-0.3-0.2-0.5-0.2h0c-0.2,0-0.3,0.1-0.5,0.2l-3.1,3c-0.1,0.1-0.2,0.3-0.2,0.4
		c0,0.2,0.1,0.3,0.2,0.4c0.1,0.1,0.3,0.2,0.5,0.2c0.2,0,0.3-0.1,0.5-0.2l3.1-3C21,7.7,21,7.3,20.7,7.1z"/>
	<path id="XMLID_13_" class="st1" d="M15.3,14.9c-0.4,0-0.6,0.3-0.6,0.6c0,1.5-1.2,2.7-2.7,2.7c-1.5,0-2.7-1.2-2.7-2.7
		c0-0.3-0.3-0.6-0.6-0.6S8,15.2,8,15.5c0,2.2,1.8,4,4,4s4-1.8,4-4C16,15.2,15.7,14.9,15.3,14.9z"/>
</g>
</svg>
